<svg version="1.1" xmlns="http://www.w3.org/2000/svg" viewBox="0 0 1680.8002777099605 1030.9537506103513" width="1680.8002777099605" height="1030.9537506103513">
  <!-- svg-source:excalidraw -->
  
  <defs>
    <style class="style-fonts">
      @font-face {
        font-family: "Virgil";
        src: url("https://excalidraw.com/Virgil.woff2");
      }
      @font-face {
        font-family: "Cascadia";
        src: url("https://excalidraw.com/Cascadia.woff2");
      }
    </style>
  </defs>
  <g stroke-linecap="round" transform="translate(425.3885116577146 98.73531595865859) rotate(0 97.84616088867188 84.18461608886719)"><path d="M33.27 -2.32 L162.4 -0.1 L175.89 -1.67 L189.6 8.54 L190.9 19.64 L194.82 33.83 L192.54 134.25 L189.95 153.04 L186.07 162.99 L179.63 169.62 L161.51 171.01 L35.57 165.34 L19.93 168.35 L7.3 162.88 L-1.76 148.31 L-1.99 136.15 L1.52 21.57 L11.36 9.95 L17.29 1.14 L29.74 -0.56" stroke="none" stroke-width="0" fill="#82c91e"></path><path d="M32 0 M32 0 C74.1 3.24, 117.95 2.03, 163.69 0 M32 0 C57.42 -0.47, 88.54 -1.55, 163.69 0 M163.69 0 C186.7 2.69, 198.81 8.73, 195.69 32 M163.69 0 C181.99 -3.69, 195.37 14.71, 195.69 32 M195.69 32 C194.71 56.39, 193.64 81.97, 195.69 136.37 M195.69 32 C197.06 57, 194.89 84.65, 195.69 136.37 M195.69 136.37 C193.99 156.23, 184.13 166.93, 163.69 168.37 M195.69 136.37 C194.21 158.77, 186.55 165.65, 163.69 168.37 M163.69 168.37 C111.72 169.85, 66.32 171.59, 32 168.37 M163.69 168.37 C122.73 167.53, 82.88 165.07, 32 168.37 M32 168.37 C10.72 165.6, 0.74 155.76, 0 136.37 M32 168.37 C6.68 164.53, 3.48 155.31, 0 136.37 M0 136.37 C0.78 107.21, -2.5 73.5, 0 32 M0 136.37 C-2.56 116.61, -3.68 93.35, 0 32 M0 32 C-0.51 11.46, 14.02 2.04, 32 0 M0 32 C-4.12 12.35, 6.26 2.63, 32 0" stroke="#000000" stroke-width="1" fill="none"></path></g><g transform="translate(440.71158599853493 171.47378794352187) rotate(0 82.43991088867188 12)"><text x="0" y="0" font-family="Virgil, Segoe UI Emoji" font-size="20px" fill="#000000" text-anchor="start" style="white-space: pre;" direction="ltr" dominant-baseline="text-before-edge">worldometers.info</text></g><g stroke-linecap="round" transform="translate(725.9424743652341 359.7815348307289) rotate(0 112.24615478515625 104.86154174804688)"><path d="M200.96 39.83 C209.83 48.53, 214.95 64.37, 218.47 76.45 C221.99 88.54, 222.99 100.14, 222.09 112.34 C221.18 124.54, 218.61 138.21, 213.05 149.64 C207.5 161.08, 198.97 172.43, 188.74 180.95 C178.52 189.47, 164.08 196.12, 151.7 200.74 C139.32 205.36, 127.72 208.01, 114.45 208.68 C101.18 209.35, 84.69 208.84, 72.09 204.76 C59.49 200.67, 48.77 192.97, 38.84 184.16 C28.9 175.36, 19.12 163.73, 12.5 151.91 C5.88 140.09, 0.24 125.92, -0.89 113.23 C-2.02 100.54, 1.99 87.36, 5.71 75.75 C9.42 64.14, 13.9 53.64, 21.38 43.57 C28.86 33.5, 39.02 22.21, 50.57 15.33 C62.13 8.45, 76.81 4.41, 90.69 2.3 C104.58 0.2, 120.83 0.39, 133.87 2.69 C146.92 4.99, 156.18 6.76, 168.96 16.1 C181.74 25.45, 202.11 48.63, 210.54 58.77 C218.98 68.92, 221.23 76.17, 219.55 76.97 M36.88 24.74 C45.43 14.81, 59.78 8.48, 72.26 4.78 C84.74 1.09, 98.6 2.09, 111.76 2.57 C124.93 3.05, 138.77 3.4, 151.25 7.64 C163.72 11.88, 176.37 18.93, 186.63 28.02 C196.89 37.11, 206.85 50.96, 212.8 62.18 C218.75 73.41, 220.79 83.74, 222.34 95.36 C223.89 106.99, 225.56 119.84, 222.09 131.96 C218.63 144.08, 209.75 157.71, 201.53 168.08 C193.31 178.45, 184.29 187.27, 172.75 194.15 C161.21 201.04, 146.31 207.39, 132.29 209.4 C118.28 211.4, 101.75 208.39, 88.67 206.18 C75.59 203.96, 64.85 202.15, 53.82 196.11 C42.78 190.08, 30.5 180.11, 22.45 169.97 C14.4 159.82, 9.63 147.97, 5.49 135.23 C1.36 122.49, -3.3 106.09, -2.34 93.54 C-1.39 80.99, 4.48 70.85, 11.24 59.92 C17.99 48.98, 33.62 33.19, 38.17 27.93 C42.72 22.66, 37.25 27.41, 38.54 28.35" stroke="none" stroke-width="0" fill="#40c057"></path><path d="M49.91 15.26 C59.97 7.39, 76.72 4.75, 89.86 2.56 C102.99 0.38, 115.63 0.04, 128.74 2.16 C141.86 4.28, 156.89 9.22, 168.52 15.28 C180.16 21.35, 190.38 28.61, 198.55 38.56 C206.72 48.52, 213.4 62.57, 217.54 75.02 C221.69 87.47, 223.86 100.62, 223.42 113.26 C222.98 125.91, 220.67 139.45, 214.9 150.89 C209.13 162.33, 198.42 173.69, 188.8 181.91 C179.18 190.12, 169.29 195.37, 157.15 200.16 C145.02 204.96, 129.85 209.91, 115.98 210.68 C102.12 211.46, 87.14 209.41, 73.95 204.8 C60.75 200.2, 47.14 191.55, 36.82 183.05 C26.5 174.55, 17.96 165.03, 12.04 153.8 C6.12 142.56, 2.41 128.01, 1.28 115.65 C0.15 103.29, 2.01 91.69, 5.24 79.64 C8.47 67.59, 5.71 56.47, 20.67 43.33 C35.64 30.19, 74.42 7.18, 95.02 0.8 C115.62 -5.58, 143.93 3.26, 144.25 5.03 M166.09 16.16 C177.83 20.22, 191.15 26.66, 199.88 36.72 C208.6 46.77, 214.81 63.76, 218.44 76.49 C222.08 89.22, 222.09 100.6, 221.68 113.11 C221.27 125.61, 221.52 140.61, 215.99 151.52 C210.47 162.42, 199.01 170.22, 188.52 178.53 C178.03 186.85, 164.85 196.46, 153.06 201.43 C141.27 206.39, 130.5 207.48, 117.76 208.33 C105.02 209.18, 90.11 210.84, 76.63 206.54 C63.14 202.23, 47.92 191.66, 36.88 182.5 C25.84 173.34, 16.68 162.41, 10.38 151.6 C4.08 140.8, 0.02 129.55, -0.93 117.67 C-1.89 105.8, 1.08 92.91, 4.64 80.33 C8.2 67.74, 12.28 52.89, 20.44 42.15 C28.61 31.41, 42.44 22.63, 53.65 15.88 C64.86 9.12, 75.14 4.23, 87.69 1.64 C100.24 -0.94, 115.31 -1.92, 128.95 0.36 C142.6 2.64, 163.39 12.27, 169.56 15.32 C175.73 18.36, 167.36 16.82, 165.96 18.64" stroke="#000000" stroke-width="1" fill="none"></path></g><g transform="translate(767.2961730957029 434.36611429850234) rotate(0 64.04994201660156 24)"><text x="64.04994201660156" y="0" font-family="Virgil, Segoe UI Emoji" font-size="20px" fill="#ffffff" text-anchor="middle" style="white-space: pre;" direction="ltr" dominant-baseline="text-before-edge">NODE.js</text><text x="64.04994201660156" y="24" font-family="Virgil, Segoe UI Emoji" font-size="20px" fill="#ffffff" text-anchor="middle" style="white-space: pre;" direction="ltr" dominant-baseline="text-before-edge">HTTP Server</text></g><g stroke-linecap="round" transform="translate(756.9989139047495 744.3060302734373) rotate(0 96.73846435546875 96.73844909667969)"><path d="M31.9 -1.81 L157.81 1.91 L176.02 -0.79 L187.11 7.13 L193.3 14.85 L191.36 28.25 L196.15 159.85 L194.1 177.41 L188.72 183.29 L178.12 195.05 L158.45 195.41 L33.98 192.77 L20.51 187.72 L5.94 183.49 L1.78 176.5 L-2.93 164.84 L2.45 23.79 L7.14 5.74 L17.44 2.81 L29.21 -1.71" stroke="none" stroke-width="0" fill="#7950f2"></path><path d="M32 0 M32 0 C71.47 -4.72, 111.58 -1.25, 161.48 0 M32 0 C56.95 -1.67, 86.67 -0.95, 161.48 0 M161.48 0 C180.88 -2.64, 190.27 10.38, 193.48 32 M161.48 0 C186.85 -2.08, 196.89 15.2, 193.48 32 M193.48 32 C188.87 60.36, 192.67 94.77, 193.48 161.48 M193.48 32 C194.97 76.74, 192.29 122.74, 193.48 161.48 M193.48 161.48 C192.04 181.52, 183.74 194.81, 161.48 193.48 M193.48 161.48 C190.76 186.66, 179.7 197.87, 161.48 193.48 M161.48 193.48 C128.03 195.82, 92.26 193.21, 32 193.48 M161.48 193.48 C131.09 190.93, 102.43 191.27, 32 193.48 M32 193.48 C8.73 190.01, -3.33 185.84, 0 161.48 M32 193.48 C8.27 192.9, 4.34 186.72, 0 161.48 M0 161.48 C-3.42 109.83, 2.67 63.9, 0 32 M0 161.48 C-2.51 128.08, -1.4 96.87, 0 32 M0 32 C2.04 7.08, 12.13 -3.83, 32 0 M0 32 C2.63 14.44, 12.19 -4.51, 32 0" stroke="#000000" stroke-width="1" fill="none"></path></g><g stroke-linecap="round"><g transform="translate(841.0959007488511 583.1168648856959) rotate(0 -1.6499587088090948 74.82428166375544)"><path d="M-1.11 1.16 C-1.8 26.03, -2.48 124.31, -2.96 148.93 M0.51 0.72 C-0.43 25.3, -3.47 122.97, -3.81 147.35" stroke="#000000" stroke-width="1" fill="none"></path></g><g transform="translate(841.0959007488511 583.1168648856959) rotate(0 -1.6499587088090948 74.82428166375544)"><path d="M-11.46 119.23 C-7.92 128.97, -4.22 143.51, -5.78 145.8 M-12.83 119.1 C-11.38 127.62, -8.1 135.22, -2.93 146.88" stroke="#000000" stroke-width="1" fill="none"></path></g><g transform="translate(841.0959007488511 583.1168648856959) rotate(0 -1.6499587088090948 74.82428166375544)"><path d="M9.05 119.72 C4.41 129.08, -0.08 143.42, -5.78 145.8 M7.68 119.6 C2.9 127.97, -0.06 135.42, -2.93 146.88" stroke="#000000" stroke-width="1" fill="none"></path></g></g><mask></mask><g stroke-linecap="round"><g transform="translate(870.1746261038613 728.059875488281) rotate(0 0.63335579301895 -71.1183625882276)"><path d="M1.02 0.46 C1.07 -23.42, 1.25 -119.02, 1.2 -142.69 M0.09 -0.35 C-0.07 -24.11, 0.44 -117.49, 0.41 -141.35" stroke="#000000" stroke-width="1" fill="none"></path></g><g transform="translate(870.1746261038613 728.059875488281) rotate(0 0.63335579301895 -71.1183625882276)"><path d="M11.36 -112.64 C6.01 -123.93, 4.06 -135.26, 1.77 -140.33 M10.23 -112.77 C7.21 -122.22, 5.09 -130.02, 1.26 -141.06" stroke="#000000" stroke-width="1" fill="none"></path></g><g transform="translate(870.1746261038613 728.059875488281) rotate(0 0.63335579301895 -71.1183625882276)"><path d="M-9.16 -112.69 C-6.8 -124.14, -1.05 -135.45, 1.77 -140.33 M-10.29 -112.82 C-7.17 -122.4, -3.15 -130.18, 1.26 -141.06" stroke="#000000" stroke-width="1" fill="none"></path></g></g><mask></mask><g transform="translate(790.4854022470347 816.1828979492185) rotate(0 63.251976013183594 21.600000000000023)"><text x="63.251976013183594" y="0" font-family="Virgil, Segoe UI Emoji" font-size="36px" fill="#ffffff" text-anchor="middle" style="white-space: pre;" direction="ltr" dominant-baseline="text-before-edge">GridDB</text></g><g stroke-linecap="round"><g transform="translate(757.4500427246091 889.290588378906) rotate(0 96.28733553560915 1.330074115348964)"><path d="M-0.23 0.56 C32.32 0.87, 161.66 1.55, 194.39 1.63 M-1.81 -0.2 C30.61 0.29, 160.17 2.53, 193.14 2.86" stroke="#000000" stroke-width="1" fill="none"></path></g></g><mask></mask><g stroke-linecap="round"><g transform="translate(759.0147106963393 782.213684082031) rotate(0 94.72266756387893 -0.41910282736216686)"><path d="M0.9 0.01 C32.67 -0.16, 158.16 -0.79, 189.53 -0.88 M-0.08 -1.03 C31.6 -1.09, 157.1 -0.05, 188.44 0.19" stroke="#000000" stroke-width="1" fill="none"></path></g></g><mask></mask><g stroke-linecap="round" transform="translate(1083.491995051222 368.4175694065657) rotate(0 108.18466186523438 84.1846160888672)"><path d="M32.46 3.5 L184.8 -2.86 L197.55 3.47 L207.88 7.4 L215.78 19.42 L212.9 35.12 L219.06 135.01 L216.75 152.6 L209.64 158.05 L197.08 166.27 L182.56 164.7 L33.91 168.91 L15.21 168.01 L7.13 162.19 L-1.15 148.25 L-3.75 139.04 L-1.12 27.12 L9.94 11.25 L15.81 4.64 L35.57 -3.03" stroke="none" stroke-width="0" fill="#228be6"></path><path d="M32 0 M32 0 C87.57 -3.22, 136.07 -1.45, 184.37 0 M32 0 C78.54 3.21, 121.37 1.81, 184.37 0 M184.37 0 C203.44 -0.56, 217.18 7.88, 216.37 32 M184.37 0 C203.74 -0.1, 218.8 12.47, 216.37 32 M216.37 32 C214.2 61.92, 213.18 103.23, 216.37 136.37 M216.37 32 C218.8 53.43, 215.92 75.18, 216.37 136.37 M216.37 136.37 C216.09 161.22, 203.89 171.34, 184.37 168.37 M216.37 136.37 C220.9 154.79, 203.18 164.22, 184.37 168.37 M184.37 168.37 C152.3 170.92, 116.58 166.58, 32 168.37 M184.37 168.37 C123.38 166.53, 62.63 167.71, 32 168.37 M32 168.37 C12 166.01, 3.35 154.99, 0 136.37 M32 168.37 C15.06 166.71, -1.18 161.92, 0 136.37 M0 136.37 C-2.63 100.11, 1.82 66.06, 0 32 M0 136.37 C0.34 112.21, -1.76 88.32, 0 32 M0 32 C3.02 8.58, 10.16 3.77, 32 0 M0 32 C3.91 13.83, 11.64 -0.61, 32 0" stroke="#000000" stroke-width="1" fill="none"></path></g><g stroke-linecap="round"><g transform="translate(956.1854072282529 457.99212785665986) rotate(0 59.961033169297025 0.06106998663489094)"><path d="M0 0 C19.99 0.02, 99.94 0.1, 119.92 0.12 M0 0 C19.99 0.02, 99.94 0.1, 119.92 0.12" stroke="#000000" stroke-width="1" fill="none"></path></g><g transform="translate(956.1854072282529 457.99212785665986) rotate(0 59.961033169297025 0.06106998663489094)"><path d="M91.72 10.35 C98.78 7.79, 105.84 5.23, 119.92 0.12 M91.72 10.35 C102.75 6.35, 113.77 2.35, 119.92 0.12" stroke="#000000" stroke-width="1" fill="none"></path></g><g transform="translate(956.1854072282529 457.99212785665986) rotate(0 59.961033169297025 0.06106998663489094)"><path d="M91.74 -10.17 C98.8 -7.59, 105.85 -5.02, 119.92 0.12 M91.74 -10.17 C102.76 -6.14, 113.78 -2.12, 119.92 0.12" stroke="#000000" stroke-width="1" fill="none"></path></g></g><mask></mask><g transform="translate(1127.0236023889395 450.1690337912454) rotate(0 65.18994903564453 12)"><text x="65.18994903564453" y="0" font-family="Virgil, Segoe UI Emoji" font-size="20px" fill="#ffffff" text-anchor="middle" style="white-space: pre;" direction="ltr" dominant-baseline="text-before-edge">Mapbox Maps</text></g><g stroke-linecap="round" transform="translate(421.6000620524086 392.8634134928383) rotate(0 82.76920954386395 82.61534372965497)"><path d="M119.36 8.56 C129.91 12.52, 139.83 22.79, 146.82 31.43 C153.81 40.07, 158.62 50.17, 161.29 60.42 C163.95 70.66, 164.43 82.07, 162.81 92.9 C161.2 103.73, 156.93 115.57, 151.61 125.4 C146.3 135.23, 139.96 145.12, 130.9 151.88 C121.84 158.64, 108.62 164.11, 97.25 165.94 C85.88 167.76, 73.49 165.63, 62.69 162.82 C51.89 160, 41.11 156.24, 32.45 149.03 C23.78 141.82, 16.36 129.95, 10.67 119.56 C4.98 109.18, -0.43 97.88, -1.69 86.7 C-2.95 75.51, -0.86 62.75, 3.12 52.44 C7.11 42.13, 13.92 32.54, 22.22 24.81 C30.51 17.09, 42.61 10.03, 52.91 6.07 C63.21 2.12, 71.95 -0.09, 84.02 1.09 C96.09 2.28, 117.74 10.64, 125.31 13.18 C132.89 15.72, 130.39 15.13, 129.48 16.34 M95.65 1.39 C107.18 0.97, 120.07 3.75, 129.57 10.06 C139.08 16.36, 147.17 29.5, 152.67 39.24 C158.16 48.98, 160.6 58.17, 162.52 68.49 C164.43 78.81, 166.52 90.33, 164.15 101.16 C161.77 112, 155.1 124.73, 148.26 133.49 C141.42 142.25, 133.5 148.44, 123.1 153.72 C112.7 159.01, 97.41 163.97, 85.85 165.21 C74.3 166.44, 64.24 165.17, 53.76 161.14 C43.28 157.1, 31.04 148.77, 22.99 141 C14.94 133.22, 9.31 124.47, 5.47 114.51 C1.64 104.55, -1.01 92.68, -0.04 81.24 C0.92 69.8, 6.58 55.85, 11.25 45.86 C15.92 35.87, 19.73 28.63, 27.95 21.28 C36.18 13.93, 49.23 4.93, 60.57 1.74 C71.92 -1.44, 90.81 1.84, 96.02 2.17 C101.23 2.49, 91.88 2.25, 91.83 3.69" stroke="none" stroke-width="0" fill="#fab005"></path><path d="M119.69 6.74 C129.93 10.22, 140.35 19.98, 147.35 28.87 C154.35 37.75, 158.55 49.32, 161.69 60.05 C164.83 70.78, 167.38 82.15, 166.18 93.22 C164.97 104.3, 160.63 117.13, 154.45 126.48 C148.28 135.83, 138.84 142.92, 129.14 149.32 C119.44 155.73, 107.24 162.46, 96.25 164.92 C85.27 167.37, 73.82 167.07, 63.23 164.04 C52.65 161.01, 41.88 154.16, 32.74 146.75 C23.6 139.34, 13.76 129.31, 8.4 119.58 C3.04 109.85, 1.22 99.18, 0.57 88.35 C-0.07 77.53, 0.81 65.36, 4.51 54.64 C8.21 43.92, 14.83 32.07, 22.76 24.02 C30.69 15.97, 41.42 10.33, 52.1 6.33 C62.77 2.33, 75.2 -0.69, 86.79 0.02 C98.39 0.74, 115.22 8.13, 121.66 10.61 C128.1 13.09, 126.19 13.71, 125.42 14.92 M138.31 20.41 C147.47 26.04, 152.26 38.15, 156.91 47.8 C161.55 57.45, 166.17 67.44, 166.19 78.3 C166.2 89.16, 161.85 101.84, 156.98 112.95 C152.12 124.06, 145.08 137.31, 137 144.94 C128.91 152.56, 118.72 155.37, 108.45 158.69 C98.19 162.02, 86.03 165.15, 75.42 164.88 C64.8 164.61, 54.83 162.22, 44.77 157.06 C34.71 151.9, 22.29 142.91, 15.07 133.93 C7.84 124.95, 3.84 114.34, 1.44 103.17 C-0.96 91.99, -1.86 77.94, 0.68 66.88 C3.22 55.82, 10.41 45.72, 16.67 36.81 C22.93 27.9, 29.11 19.37, 38.24 13.41 C47.37 7.46, 60.13 2.39, 71.45 1.06 C82.78 -0.26, 95.26 2.4, 106.19 5.45 C117.12 8.5, 131.7 17.14, 137.03 19.38 C142.37 21.62, 139.39 17.84, 138.19 18.91" stroke="#ffffff" stroke-width="1" fill="none"></path></g><g stroke-linecap="round"><g transform="translate(597.0258923937271 462.5971341223831) rotate(0 58.710740865774596 -0.5875386734208519)"><path d="M0.72 -0.54 C19.98 -0.79, 96.28 -0.71, 115.41 -0.95 M-0.36 1.79 C19.31 1.1, 98.64 -2.48, 117.78 -2.97" stroke="#000000" stroke-width="1" fill="none"></path></g><g transform="translate(597.0258923937271 462.5971341223831) rotate(0 58.710740865774596 -0.5875386734208519)"><path d="M89.09 7.25 C98.26 4.01, 104.47 0.12, 116.5 -3.95 M89.35 8.94 C96.37 6.23, 101.91 3.92, 117.28 -3.39" stroke="#000000" stroke-width="1" fill="none"></path></g><g transform="translate(597.0258923937271 462.5971341223831) rotate(0 58.710740865774596 -0.5875386734208519)"><path d="M88.33 -13.26 C97.82 -10.61, 104.25 -8.6, 116.5 -3.95 M88.59 -11.57 C95.65 -10.02, 101.34 -8.07, 117.28 -3.39" stroke="#000000" stroke-width="1" fill="none"></path></g></g><mask></mask><g transform="translate(439.7387034098306 458.52117665608705) rotate(0 65.89596557617188 9.599999999999994)"><text x="65.89596557617188" y="0" font-family="Virgil, Segoe UI Emoji" font-size="16px" fill="#000000" text-anchor="middle" style="white-space: pre;" direction="ltr" dominant-baseline="text-before-edge">Data Acquisition</text></g><g stroke-linecap="round"><g transform="translate(511.4134865883241 285.75266382075813) rotate(0 -1.0803159145034442 42.40425961038557)"><path d="M0.89 -0.87 C0.58 13.61, -1.94 71.25, -2.42 85.68 M-0.1 1.29 C-0.46 15.55, -2.71 70.32, -3.05 84.08" stroke="#000000" stroke-width="1" fill="none"></path></g><g transform="translate(511.4134865883241 285.75266382075813) rotate(0 -1.0803159145034442 42.40425961038557)"><path d="M-13.8 56.56 C-8.61 64.45, -6.23 71.21, -3.07 83.88 M-13.19 56.03 C-10.18 62.84, -6.21 71.04, -3.94 83.77" stroke="#000000" stroke-width="1" fill="none"></path></g><g transform="translate(511.4134865883241 285.75266382075813) rotate(0 -1.0803159145034442 42.40425961038557)"><path d="M6.71 57.25 C6.73 65.13, 3.94 71.71, -3.07 83.88 M7.32 56.72 C4.57 63.37, 2.76 71.37, -3.94 83.77" stroke="#000000" stroke-width="1" fill="none"></path></g></g><mask></mask><g stroke-linecap="round" transform="translate(10 10) rotate(0 830.4001388549802 505.47687530517567)"><path d="M32 0 M32 0 C372.68 0.22, 713.31 0.06, 1628.8 0 M1628.8 0 C1652.02 -0.12, 1659.76 11.94, 1660.8 32 M1660.8 32 C1661.8 313.21, 1662.9 593.48, 1660.8 978.95 M1660.8 978.95 C1659.72 1001.2, 1649.52 1009.01, 1628.8 1010.95 M1628.8 1010.95 C1042.8 1008.31, 457.57 1008.53, 32 1010.95 M32 1010.95 C8.99 1011.87, 0.71 998.76, 0 978.95 M0 978.95 C-2.74 736.21, -3.06 493.31, 0 32 M0 32 C-1.16 9.86, 11.19 1.8, 32 0" stroke="#5f3dc4" stroke-width="2.5" fill="none" stroke-dasharray="8 10"></path></g><g transform="translate(1164.0972176305138 414.5340489306857) rotate(0 29.589981079101562 11.999999999999986)"><text x="29.589981079101562" y="0" font-family="Virgil, Segoe UI Emoji" font-size="20px" fill="#ffffff" text-anchor="middle" style="white-space: pre;" direction="ltr" dominant-baseline="text-before-edge">React</text></g></svg>